<?xml version="1.0"?>
<svg viewBox="0 0 32 32" xmlns="http://www.w3.org/2000/svg" xmlns:svg="http://www.w3.org/2000/svg">
 <g class="layer">
  <title>Layer 1</title>
  <path d="m15.52,0.62l-0.33,0.3c0,0 -3.91,3.37 -3.91,9.17l0,5.91l-1.18,0l-1.18,0l0,1.18l0,1.18l-4.73,0l0,-11.83l-2.37,0l0,8.28l-1.18,0l0,13.01l2.37,0l1.18,0l0,-1.85l4.73,1.7l0,3.69l2.37,0l0,-2.85l1.18,0.45l0,2.4l2.37,0l0,-1.55l0.78,0.3l0.4,0.14l0.4,-0.14l0.78,-0.3l0,1.55l2.37,0l0,-2.4l1.18,-0.45l0,2.85l2.37,0l0,-3.69l4.73,-1.7l0,1.85l1.18,0l1.18,0l1.18,0l0,-13.01l-1.18,0l0,-8.28l-2.37,0l0,11.83l-4.73,0l0,-1.18l0,-1.18l-1.18,0l-1.18,0l0,-5.91c0,-5.8 -3.91,-9.17 -3.91,-9.17l-0.33,-0.3l-0.45,0l-0.07,0l-0.45,0zm0.48,2.99c0.86,0.93 2.37,2.86 2.37,6.47l0,5.91l-1.18,0l0,-4.73l-2.37,0l0,4.73l-1.18,0l0,-5.91c0,-3.61 1.51,-5.54 2.37,-6.47zm-4.73,14.75l9.46,0l0,4.73l2.37,0l0,-2.37l4.73,0l0,2.73l-11.83,4.29l-11.83,-4.29l0,-2.73l4.73,0l0,2.37l2.37,0l0,-4.73zm1.18,1.18c0,1.96 1.58,3.55 3.55,3.55c1.96,0 3.55,-1.58 3.55,-3.55l-2.37,0c0,0.65 -0.53,1.18 -1.18,1.18c-0.65,0 -1.18,-0.53 -1.18,-1.18l-2.37,0z" id="svg_1"/>
 </g>
</svg>