<svg xmlns="http://www.w3.org/2000/svg" viewBox="0 0 32 32"><g class="layer"><path d="m15.52.62-.33.3s-3.91 3.37-3.91 9.17V16H8.92v2.36H4.19V6.53H1.82v8.28H.64v13.01h3.55v-1.85l4.73 1.7v3.69h2.37v-2.85l1.18.45v2.4h2.37v-1.55l.78.3.4.14.4-.14.78-.3v1.55h2.37v-2.4l1.18-.45v2.85h2.37v-3.69l4.73-1.7v1.85h3.54V14.81h-1.18V6.53h-2.37v11.83h-4.73V16h-2.36v-5.91c0-5.8-3.91-9.17-3.91-9.17l-.33-.3h-.97zM16 3.61c.86.93 2.37 2.86 2.37 6.47v5.91h-1.18v-4.73h-2.37v4.73h-1.18v-5.91c0-3.61 1.51-5.54 2.37-6.47zm-4.73 14.75h9.46v4.73h2.37v-2.37h4.73v2.73L16 27.74 4.17 23.45v-2.73H8.9v2.37h2.37v-4.73zm1.18 1.18c0 1.96 1.58 3.55 3.55 3.55 1.96 0 3.55-1.58 3.55-3.55h-2.37c0 .65-.53 1.18-1.18 1.18-.65 0-1.18-.53-1.18-1.18h-2.37z"/></g></svg>